**ABCDEFGHIJKLMNOPQRSTUVWXYZabcdefghijklmnopqrstuvwxyz**************************
**PARASOLID !"#$%&'()*+,-./:;<=>?@[\]^_`{|}~0123456789**************************
**PART1;
MC=unknown;
MC_MODEL=unknown;
MC_ID=unknown;
OS=unknown;
OS_RELEASE=unknown;
FRU=sdl_parasolid_customer_support;
APPL=parasolid_acceptance_tests;
SITE=unknown;
USER=unknown;
FORMAT=text;
GUISE=transmit;
KEY=C:\MSC.Software\Digimat\working\Harry_Working_Directory\Template\Template_Job_Analysis1_Matrix_uncut;
FILE=C:\MSC.Software\Digimat\working\Harry_Working_Directory\Template\Template_Job_Analysis1_Matrix_uncut.xmt_txt;
DATE=unknown;
**PART2;
SCH=SCH_3500149_35002;
USFLD_SIZE=1;
**PART3;
**END_OF_HEADER*****************************************************************
T51 : TRANSMIT FILE created by modeller version 350014923 SCH_3500149_35002_1300
6231 1 12 36 CCCI7 lattice222 0 CCCI4 mesh1006 0 I8 polyline1008 0 CCCCCCCDI5 ow
ner1040 0 CCCI16 boundary_lattice222 0 CCCI13 boundary_mesh1006 0 I17 boundary_p
olyline1008 0 CCCA16 index_map_offset0 0 1 dA9 index_map82 0 A17 node_id_index_m
ap82 0 A20 schema_embedding_map82 0 A5 child12 0 A14 lowest_node_id0 0 1 dA16 me
sh_offset_data206 0 Z1 63 2 3 0 0 0 0 0 0 0 1e3 1e-8 0 4 5 1 0 1 1 6 0 7 8 9 0 0
 10 11 12 0 0 0 0 0 0 0 0 81 255 8 2 63 13 1 0 0 0 0 14 0 15 0 0 16 17 0 0 70 11
 CI9 list_type0 0 1 uI10 notransmit0 0 1 lCCCDCCDI12 finger_index0 0 1 dI12 fing
er_block1012 0 CZ3 0 4 T1 0 0 1 20 1 18 18 0 13 255 6 3 0 1 0 19 0 0 20 0 0 50 2
55 7 54 0 19 21 0 0 +.05 .05 .1 0 0 1 1 0 0 0 30 255 8 62 0 11 22 0 0 +.05 0 .1
 -1 0 0 0 29 255 9 58 0 12 23 0 0 0 .1 0 19 9 CCCCCCI5 frame230 0 CA5 owner12 0
 Z10 1 0 1 20 0 24 0 V0 0 16 255 11 34 0 ?25 0 26 8 0 0 1 0 18 255 12 23 0 25 0
 27 9 ?1 0 17 255 25 0 28 29 30 12 31 11 0 32 +0 18 27 21 0 33 12 34 23 ?1 0 17
 33 0 35 36 37 27 32 26 0 38 +0 18 34 19 0 39 27 40 41 ?1 0 29 23 57 0 27 41 9 0
 .1 .1 0 29 41 56 0 34 42 23 .1 .1 .1 0 29 42 55 0 40 43 41 .1 0 .1 0 18 40 17 0
 31 34 44 42 ?1 0 29 43 41 0 45 46 42 0 0 0 0 18 45 11 0 29 47 48 43 ?1 0 29 46
 40 0 47 49 43 0 .1 0 0 18 47 13 0 36 44 45 46 ?1 0 29 49 39 0 44 50 46 .1 .1 0
 0 18 44 15 0 51 40 47 49 ?1 0 29 50 38 0 48 0 49 .1 0 0 0 18 48 10 0 52 45 0 50
 ?1 0 17 52 0 53 54 55 48 30 56 0 57 -0 15 255 53 7 0 54 58 0 0 17 54 0 53 59 52
 44 60 61 0 0 +0 17 55 0 53 52 59 40 62 63 0 30 +0 17 30 0 28 25 57 40 52 56 0 0
 +0 16 56 18 0 ?30 64 61 65 0 0 1 0 17 57 0 28 30 29 48 66 67 0 60 +0 15 28 32 0
 30 68 0 0 17 29 0 28 57 25 45 37 69 0 70 -0 17 66 0 71 72 60 45 57 67 0 0 -0 16
 67 12 0 ?57 73 0 74 0 0 1 0 17 60 0 71 66 75 48 54 61 0 0 -0 15 71 8 0 60 76 0
 0 17 75 0 71 60 72 44 77 78 0 54 -0 16 61 6 0 ?54 56 78 79 0 0 1 0 16 78 16 0 ?
77 61 73 80 0 0 1 0 30 79 43 0 61 74 80 0 +.1 .05 0 0 1 0 0 30 74 42 0 67 0 79 0
 +.05 0 0 1 0 0 0 30 80 44 0 78 79 81 0 +.05 .1 0 -1 0 0 0 30 81 45 0 73 80 65 0
 +0 .05 0 0 -1 0 0 16 73 14 0 ?70 78 67 81 0 0 1 0 30 65 50 0 56 81 82 0 +.1 0 0
 0 0 1 0 30 82 51 0 64 65 83 0 +.1 .1 0 0 0 1 0 16 64 20 0 ?59 84 56 82 0 0 1 0
 30 83 52 0 84 82 85 0 +0 .1 0 0 0 1 0 16 84 22 0 ?86 69 64 83 0 0 1 0 30 85 53
 0 69 83 87 0 +0 0 0 0 0 1 0 16 69 24 0 ?37 63 84 85 0 0 1 0 30 87 59 0 63 85 88
 0 +.1 .05 .1 0 -1 0 0 16 63 25 0 ?55 89 69 87 0 0 1 0 30 88 60 0 89 87 22 0 +.0
5 .1 .1 1 0 0 0 16 89 28 0 ?39 26 63 88 0 0 1 0 30 22 61 0 26 88 8 0 +0 .05 .1 0
 1 0 0 16 26 31 0 ?33 11 89 22 0 0 1 0 17 39 0 90 51 86 34 38 89 0 62 +0 15 90 2
6 0 86 91 0 0 17 51 0 90 77 39 44 59 64 0 75 -0 17 86 0 90 39 77 27 36 84 0 0 +0
 17 38 0 92 32 62 27 39 89 0 86 -0 17 62 0 92 38 31 34 55 63 0 59 -0 15 92 35 0
 31 19 0 0 17 31 0 92 62 32 40 25 11 0 55 -0 17 59 0 53 55 54 34 51 64 0 0 +0 17
 32 0 92 31 38 12 33 26 0 37 -0 17 37 0 35 33 70 12 29 69 0 0 +0 15 35 29 0 37 9
3 0 0 17 70 0 35 37 36 45 72 73 0 66 +0 17 36 0 35 70 33 47 86 84 0 77 -0 17 72
 0 71 75 66 47 70 73 0 0 -0 17 77 0 90 86 51 47 75 78 0 72 +0 14 255 93 30 0 ?91
 68 35 6 94 +0 0 91 68 24 0 14 91 27 0 ?76 93 90 6 95 +0 0 76 93 24 0 14 68 33 0
 ?93 19 28 6 21 +0 0 93 19 24 0 50 94 48 0 93 95 21 0 +0 .05 0 -1 0 0 0 0 1 0 13
 24 4 0 0 0 0 0 0 10 19 0 14 19 36 0 ?68 0 92 6 7 +0 0 68 0 24 0 50 95 47 0 91 9
6 94 0 +.05 .1 0 0 1 0 0 0 1 0 50 21 49 0 68 94 7 0 +.05 0 0 0 -1 0 0 0 -1 0 50
 96 46 0 58 97 95 0 +.1 .05 0 1 0 0 0 0 -1 0 14 58 2 0 ?0 76 53 6 96 +0 0 0 76 2
4 0 50 97 37 0 76 0 96 0 +.05 .05 0 0 0 -1 -1 0 0 0 14 76 9 0 ?58 91 71 6 97 +0
 0 58 91 24 0 19 20 5 0 1 0 10 6 0 S0 0 74 4 CI16 index_map_offset0 0 1 dCCZ20 1
8 1 0 0 2 0 0 0 0 0 0 0 0 0 0 0 0 0 0 0 0 0 0 0 0 80 7 CCCCCDI12 legal_owners0 1
6 1 lCZ8 13 98 99 9000 0 0 0 0 3 5 0 0 100 FFTFFFFFFFFFFFFF3 3 1 1 2 1 2 2 0 84
 255 6 14 Matrix0 82 255 1 15 -1 0 82 1 16 -1 0 83 255 3 17 90 0 0 0 79 255 38 9
9 e-X Digimat-FE geometry identification0 99 255 8 100 101 102 103 104 105 106 1
07 108 0 84 22 101 e-XDigimatFE_PhaseName0 84 22 102 e-XDigimatFE_LayerName0 84
 24 103 e-XDigimatFE_InclusionId0 84 27 104 e-XDigimatFE_SubInclusionId0 84 30 1
05 e-XDigimatFE_InclusionPosition0 84 22 106 e-XDigimatFE_CutStatus0 84 33 107 e
-XDigimatFE_InclusionOrientation0 84 24 108 e-XDigimatFE_YarnVfRatio0 1 0 
