**ABCDEFGHIJKLMNOPQRSTUVWXYZabcdefghijklmnopqrstuvwxyz**************************
**PARASOLID !"#$%&'()*+,-./:;<=>?@[\]^_`{|}~0123456789**************************
**PART1;
MC=unknown;
MC_MODEL=unknown;
MC_ID=unknown;
OS=unknown;
OS_RELEASE=unknown;
FRU=sdl_parasolid_customer_support;
APPL=parasolid_acceptance_tests;
SITE=unknown;
USER=unknown;
FORMAT=text;
GUISE=transmit;
KEY=C:\MSC.Software\Digimat\working\Harry_Working_Directory\Template\Template_Job_Analysis1_Voids_uncut;
FILE=C:\MSC.Software\Digimat\working\Harry_Working_Directory\Template\Template_Job_Analysis1_Voids_uncut.xmt_txt;
DATE=unknown;
**PART2;
SCH=SCH_3500149_35002;
USFLD_SIZE=1;
**PART3;
**END_OF_HEADER*****************************************************************
T51 : TRANSMIT FILE created by modeller version 350014923 SCH_3500149_35002_1300
6231 1 176 6 14 PART_XMT_BLOCK9 Part list9 n_entries0 0 1 d16 index_map_offset0
 0 1 d9 index_map82 0 20 schema_embedding_map82 0 16 mesh_offset_data206 0 7 ent
ries1005 1 T10 1 10 0 0 0 0 2 3 4 5 6 7 8 9 10 11 0 12 36 CCCI7 lattice222 0 CCC
I4 mesh1006 0 I8 polyline1008 0 CCCCCCCDI5 owner1040 0 CCCI16 boundary_lattice22
2 0 CCCI13 boundary_mesh1006 0 I17 boundary_polyline1008 0 CCCA16 index_map_offs
et0 0 1 dA9 index_map82 0 A17 node_id_index_map82 0 A20 schema_embedding_map82 0
 A5 child12 0 A14 lowest_node_id0 0 1 dA16 mesh_offset_data206 0 Z2 7 12 13 0 0
 0 0 0 0 0 1e3 1e-8 0 14 15 1 0 1 1 16 0 17 0 0 0 0 18 0 0 0 0 0 0 0 0 0 0 12 3
 7 19 20 0 0 0 0 0 0 0 1e3 1e-8 0 15 21 1 0 1 1 22 0 23 0 0 0 0 24 0 0 0 0 0 0 0
 0 0 0 12 4 7 25 26 0 0 0 0 0 0 0 1e3 1e-8 0 21 27 1 0 1 1 28 0 29 0 0 0 0 30 0
 0 0 0 0 0 0 0 0 0 12 5 7 31 32 0 0 0 0 0 0 0 1e3 1e-8 0 27 33 1 0 1 1 34 0 35 0
 0 0 0 36 0 0 0 0 0 0 0 0 0 0 12 6 7 37 38 0 0 0 0 0 0 0 1e3 1e-8 0 33 39 1 0 1
 1 40 0 41 0 0 0 0 42 0 0 0 0 0 0 0 0 0 0 12 7 7 43 44 0 0 0 0 0 0 0 1e3 1e-8 0
 39 45 1 0 1 1 46 0 47 0 0 0 0 48 0 0 0 0 0 0 0 0 0 0 12 8 7 49 50 0 0 0 0 0 0 0
 1e3 1e-8 0 45 51 1 0 1 1 52 0 53 0 0 0 0 54 0 0 0 0 0 0 0 0 0 0 12 9 7 55 56 0
 0 0 0 0 0 0 1e3 1e-8 0 51 57 1 0 1 1 58 0 59 0 0 0 0 60 0 0 0 0 0 0 0 0 0 0 12
 10 7 61 62 0 0 0 0 0 0 0 1e3 1e-8 0 63 64 1 0 1 1 65 0 66 0 0 0 0 67 0 0 0 0 0
 0 0 0 0 0 12 11 7 68 69 0 0 0 0 0 0 0 1e3 1e-8 0 64 70 1 0 1 1 71 0 72 0 0 0 0
 73 0 0 0 0 0 0 0 0 0 0 81 255 8 68 7 74 11 0 0 0 0 75 0 76 0 77 78 79 0 0 70 11
 CI9 list_type0 0 1 uI10 notransmit0 0 1 lCCCDCCDI12 finger_index0 0 1 dI12 fing
er_block1012 0 CZ69 0 4 T11 0 0 1 20 1 80 80 0 13 255 71 3 0 11 0 81 0 0 82 0 0
 53 255 72 6 0 81 0 0 0 +.04166382597565275 .002514829442956195 .059885801507599
2 .03 1 0 612323399573677e-31 612323399573677e-31 0 -1 0 19 9 CCCCCCI5 frame230
 0 CA5 owner12 0 Z73 1 0 11 82 0 83 0 V0 0 19 82 5 0 11 0 73 71 0 S0 0 13 83 4 0
 0 0 0 0 0 73 81 0 14 255 81 2 0 ?0 0 0 71 72 +0 0 0 0 83 0 74 4 CI16 index_map_
offset0 0 1 dCCZ20 80 1 0 0 68 0 0 0 0 0 0 0 0 0 0 0 0 0 0 0 0 0 0 0 0 80 7 CCCC
CDI12 legal_owners0 16 1 lCZ8 74 84 85 9000 0 0 0 0 3 5 0 0 86 FFTFFFFFFFFFFFFF3
 3 1 1 2 1 2 2 0 84 255 5 75 Voids0 82 255 1 76 9 0 83 255 3 77 .041663825975652
75 .002514829442956195 .0598858015075992 0 82 1 78 -1 0 83 3 79 90 0 0 0 79 255
 38 85 e-X Digimat-FE geometry identification0 99 255 8 86 87 88 89 90 91 92 93
 94 0 84 22 87 e-XDigimatFE_PhaseName0 84 22 88 e-XDigimatFE_LayerName0 84 24 89
 e-XDigimatFE_InclusionId0 84 27 90 e-XDigimatFE_SubInclusionId0 84 30 91 e-XDig
imatFE_InclusionPosition0 84 22 92 e-XDigimatFE_CutStatus0 84 33 93 e-XDigimatFE
_InclusionOrientation0 84 24 94 e-XDigimatFE_YarnVfRatio0 81 8 61 7 74 10 0 0 0
 0 95 0 96 0 97 98 99 0 0 70 62 0 4 T10 0 0 1 20 1 100 100 0 13 65 3 0 10 0 101
 0 0 102 0 0 53 66 6 0 101 0 0 0 +.04166382597565275 .1025148294429562 .05988580
15075992 .03 1 0 612323399573677e-31 612323399573677e-31 0 -1 0 19 67 1 0 10 102
 0 103 0 V0 0 19 102 5 0 10 0 67 65 0 S0 0 13 103 4 0 0 0 0 0 0 67 101 0 14 101
 2 0 ?0 0 0 65 66 +0 0 0 0 103 0 74 20 100 1 0 0 61 0 0 0 0 0 0 0 0 0 0 0 0 0 0
 0 0 0 0 0 0 84 5 95 Voids0 82 1 96 8 0 83 3 97 .04166382597565275 .102514829442
9562 .0598858015075992 0 82 1 98 -1 0 83 3 99 90 0 0 0 81 8 55 7 74 9 0 0 0 0 10
4 0 105 0 106 107 108 0 0 70 56 0 4 T9 0 0 1 20 1 109 109 0 13 58 3 0 9 0 110 0
 0 111 0 0 53 59 6 0 110 0 0 0 +.0514623038287885 .00456389691088441 .0941719231
810821 .03 1 0 612323399573677e-31 612323399573677e-31 0 -1 0 19 60 1 0 9 111 0
 112 0 V0 0 19 111 5 0 9 0 60 58 0 S0 0 13 112 4 0 0 0 0 0 0 60 110 0 14 110 2 0
 ?0 0 0 58 59 +0 0 0 0 112 0 74 20 109 1 0 0 55 0 0 0 0 0 0 0 0 0 0 0 0 0 0 0 0
 0 0 0 0 84 5 104 Voids0 82 1 105 7 0 83 3 106 .0514623038287885 .00456389691088
441 .0941719231810821 0 82 1 107 -1 0 83 3 108 90 0 0 0 81 8 49 7 74 8 0 0 0 0 1
13 0 114 0 115 116 117 0 0 70 50 0 4 T8 0 0 1 20 1 118 118 0 13 52 3 0 8 0 119 0
 0 120 0 0 53 53 6 0 119 0 0 0 +.0514623038287885 .1045638969108844 .09417192318
10821 .03 1 0 612323399573677e-31 612323399573677e-31 0 -1 0 19 54 1 0 8 120 0 1
21 0 V0 0 19 120 5 0 8 0 54 52 0 S0 0 13 121 4 0 0 0 0 0 0 54 119 0 14 119 2 0 ?
0 0 0 52 53 +0 0 0 0 121 0 74 20 118 1 0 0 49 0 0 0 0 0 0 0 0 0 0 0 0 0 0 0 0 0
 0 0 0 84 5 113 Voids0 82 1 114 6 0 83 3 115 .0514623038287885 .1045638969108844
 .0941719231810821 0 82 1 116 -1 0 83 3 117 90 0 0 0 81 8 43 7 74 7 0 0 0 0 122
 0 123 0 124 125 126 0 0 70 44 0 4 T7 0 0 1 20 1 127 127 0 13 46 3 0 7 0 128 0 0
 129 0 0 53 47 6 0 128 0 0 0 +.0514623038287885 .00456389691088441 -.00582807681
891789 .03 1 0 612323399573677e-31 612323399573677e-31 0 -1 0 19 48 1 0 7 129 0
 130 0 V0 0 19 129 5 0 7 0 48 46 0 S0 0 13 130 4 0 0 0 0 0 0 48 128 0 14 128 2 0
 ?0 0 0 46 47 +0 0 0 0 130 0 74 20 127 1 0 0 43 0 0 0 0 0 0 0 0 0 0 0 0 0 0 0 0
 0 0 0 0 84 5 122 Voids0 82 1 123 5 0 83 3 124 .0514623038287885 .00456389691088
441 -.00582807681891789 0 82 1 125 -1 0 83 3 126 90 0 0 0 81 8 37 7 74 6 0 0 0 0
 131 0 132 0 133 134 135 0 0 70 38 0 4 T6 0 0 1 20 1 136 136 0 13 40 3 0 6 0 137
 0 0 138 0 0 53 41 6 0 137 0 0 0 +.0514623038287885 .1045638969108844 -.00582807
681891789 .03 1 0 612323399573677e-31 612323399573677e-31 0 -1 0 19 42 1 0 6 138
 0 139 0 V0 0 19 138 5 0 6 0 42 40 0 S0 0 13 139 4 0 0 0 0 0 0 42 137 0 14 137 2
 0 ?0 0 0 40 41 +0 0 0 0 139 0 74 20 136 1 0 0 37 0 0 0 0 0 0 0 0 0 0 0 0 0 0 0
 0 0 0 0 0 84 5 131 Voids0 82 1 132 4 0 83 3 133 .0514623038287885 .104563896910
8844 -.00582807681891789 0 82 1 134 -1 0 83 3 135 90 0 0 0 81 8 31 7 74 5 0 0 0
 0 140 0 141 0 142 143 144 0 0 70 32 0 4 T5 0 0 1 20 1 145 145 0 13 34 3 0 5 0 1
46 0 0 147 0 0 53 35 6 0 146 0 0 0 +.00921637832634534 .0658412411659586 .000680
634558824972 .03 1 0 612323399573677e-31 612323399573677e-31 0 -1 0 19 36 1 0 5
 147 0 148 0 V0 0 19 147 5 0 5 0 36 34 0 S0 0 13 148 4 0 0 0 0 0 0 36 146 0 14 1
46 2 0 ?0 0 0 34 35 +0 0 0 0 148 0 74 20 145 1 0 0 31 0 0 0 0 0 0 0 0 0 0 0 0 0
 0 0 0 0 0 0 0 84 5 140 Voids0 82 1 141 3 0 83 3 142 .00921637832634534 .0658412
411659586 .000680634558824972 0 82 1 143 -1 0 83 3 144 90 0 0 0 81 8 25 7 74 4 0
 0 0 0 149 0 150 0 151 152 153 0 0 70 26 0 4 T4 0 0 1 20 1 154 154 0 13 28 3 0 4
 0 155 0 0 156 0 0 53 29 6 0 155 0 0 0 +.1092163783263452 .0658412411659586 .000
680634558824972 .03 1 0 612323399573677e-31 612323399573677e-31 0 -1 0 19 30 1 0
 4 156 0 157 0 V0 0 19 156 5 0 4 0 30 28 0 S0 0 13 157 4 0 0 0 0 0 0 30 155 0 14
 155 2 0 ?0 0 0 28 29 +0 0 0 0 157 0 74 20 154 1 0 0 25 0 0 0 0 0 0 0 0 0 0 0 0
 0 0 0 0 0 0 0 0 84 5 149 Voids0 82 1 150 2 0 83 3 151 .1092163783263452 .065841
2411659586 .000680634558824972 0 82 1 152 -1 0 83 3 153 90 0 0 0 81 8 19 7 74 3
 0 0 0 0 158 0 159 0 160 161 162 0 0 70 20 0 4 T3 0 0 1 20 1 163 163 0 13 22 3 0
 3 0 164 0 0 165 0 0 53 23 6 0 164 0 0 0 +.00921637832634534 .0658412411659586 .
100680634558825 .03 1 0 612323399573677e-31 612323399573677e-31 0 -1 0 19 24 1 0
 3 165 0 166 0 V0 0 19 165 5 0 3 0 24 22 0 S0 0 13 166 4 0 0 0 0 0 0 24 164 0 14
 164 2 0 ?0 0 0 22 23 +0 0 0 0 166 0 74 20 163 1 0 0 19 0 0 0 0 0 0 0 0 0 0 0 0
 0 0 0 0 0 0 0 0 84 5 158 Voids0 82 1 159 1 0 83 3 160 .00921637832634534 .06584
12411659586 .100680634558825 0 82 1 161 -1 0 83 3 162 90 0 0 0 81 8 12 7 74 2 0
 0 0 0 167 0 168 0 169 170 171 0 0 70 13 0 4 T2 0 0 1 20 1 172 172 0 13 16 3 0 2
 0 173 0 0 174 0 0 53 17 6 0 173 0 0 0 +.1092163783263452 .0658412411659586 .100
680634558825 .03 1 0 612323399573677e-31 612323399573677e-31 0 -1 0 19 18 1 0 2
 174 0 175 0 V0 0 19 174 5 0 2 0 18 16 0 S0 0 13 175 4 0 0 0 0 0 0 18 173 0 14 1
73 2 0 ?0 0 0 16 17 +0 0 0 0 175 0 74 20 172 1 0 0 12 0 0 0 0 0 0 0 0 0 0 0 0 0
 0 0 0 0 0 0 0 84 5 167 Voids0 82 1 168 0 0 83 3 169 .1092163783263452 .06584124
11659586 .100680634558825 0 82 1 170 -1 0 83 3 171 90 0 0 0 1 0 
